<svg width="24" height="24" viewBox="0 0 24 24" fill="none" xmlns="http://www.w3.org/2000/svg">
<g opacity="0.7">
<path d="M18.4437 16.6875L15.232 13.9406C16.1766 12.7195 16.6875 11.2266 16.6875 9.65625C16.6875 7.77656 15.9539 6.01406 14.6273 4.68516C13.3008 3.35625 11.5336 2.625 9.65625 2.625C7.77891 2.625 6.01172 3.35859 4.68516 4.68516C3.35625 6.01172 2.625 7.77656 2.625 9.65625C2.625 11.5336 3.35859 13.3008 4.68516 14.6273C6.01172 15.9562 7.77656 16.6875 9.65625 16.6875C11.2266 16.6875 12.7172 16.1766 13.9383 15.2344L17.1499 17.9789C17.1678 17.9968 17.189 18.0109 17.2123 18.0206C17.2356 18.0303 17.2606 18.0352 17.2859 18.0352C17.3111 18.0352 17.3361 18.0303 17.3594 18.0206C17.3828 18.0109 17.4039 17.9968 17.4218 17.9789L18.4437 16.9594C18.4615 16.9415 18.4757 16.9203 18.4854 16.897C18.495 16.8737 18.5 16.8487 18.5 16.8234C18.5 16.7982 18.495 16.7732 18.4854 16.7499C18.4757 16.7265 18.4615 16.7053 18.4437 16.6875ZM13.3688 13.3688C12.375 14.3602 11.0578 14.9062 9.65625 14.9062C8.25469 14.9062 6.9375 14.3602 5.94375 13.3688C4.95234 12.375 4.40625 11.0578 4.40625 9.65625C4.40625 8.25469 4.95234 6.93516 5.94375 5.94375C6.9375 4.95234 8.25469 4.40625 9.65625 4.40625C11.0578 4.40625 12.3773 4.95 13.3688 5.94375C14.3602 6.9375 14.9062 8.25469 14.9062 9.65625C14.9062 11.0578 14.3602 12.3773 13.3688 13.3688Z" fill="white"/>
</g>
</svg>
